<svg width="42" height="41" viewBox="0 0 42 41" fill="none" xmlns="http://www.w3.org/2000/svg">
<path d="M18.9167 22.5417V28.6667C18.9167 29.2451 19.1167 29.7304 19.5167 30.1224C19.9167 30.5144 20.4111 30.7097 21 30.7083C21.5903 30.7083 22.0854 30.5123 22.4854 30.1203C22.8854 29.7283 23.0847 29.2438 23.0833 28.6667V22.5417H29.3333C29.9236 22.5417 30.4187 22.3457 30.8187 21.9537C31.2187 21.5617 31.4181 21.0771 31.4167 20.5C31.4167 19.9215 31.2167 19.4363 30.8167 19.0443C30.4167 18.6523 29.9222 18.457 29.3333 18.4583H23.0833V12.3333C23.0833 11.7549 22.8833 11.2696 22.4833 10.8776C22.0833 10.4856 21.5889 10.2903 21 10.2917C20.4097 10.2917 19.9146 10.4877 19.5146 10.8797C19.1146 11.2717 18.9153 11.7562 18.9167 12.3333V18.4583H12.6667C12.0764 18.4583 11.5812 18.6543 11.1812 19.0463C10.7812 19.4383 10.5819 19.9229 10.5833 20.5C10.5833 21.0785 10.7833 21.5637 11.1833 21.9557C11.5833 22.3477 12.0778 22.543 12.6667 22.5417H18.9167ZM21 40.9167C18.1181 40.9167 15.4097 40.3804 12.875 39.3078C10.3403 38.2353 8.13542 36.7809 6.26041 34.9448C4.38541 33.1073 2.90139 30.9465 1.80833 28.4625C0.715275 25.9785 0.168053 23.3243 0.166664 20.5C0.166664 17.6757 0.713887 15.0215 1.80833 12.5375C2.90278 10.0535 4.3868 7.89271 6.26041 6.05521C8.13542 4.21771 10.3403 2.76336 12.875 1.69217C15.4097 0.620973 18.1181 0.0846946 21 0.0833335C23.8819 0.0833335 26.5903 0.619611 29.125 1.69217C31.6597 2.76472 33.8646 4.21907 35.7396 6.05521C37.6146 7.89271 39.0993 10.0535 40.1937 12.5375C41.2882 15.0215 41.8347 17.6757 41.8333 20.5C41.8333 23.3243 41.2861 25.9785 40.1917 28.4625C39.0972 30.9465 37.6132 33.1073 35.7396 34.9448C33.8646 36.7823 31.6597 38.2373 29.125 39.3099C26.5903 40.3824 23.8819 40.918 21 40.9167ZM21 36.8333C25.6528 36.8333 29.5937 35.251 32.8229 32.0865C36.0521 28.9219 37.6667 25.0597 37.6667 20.5C37.6667 15.9403 36.0521 12.0781 32.8229 8.91354C29.5937 5.74896 25.6528 4.16667 21 4.16667C16.3472 4.16667 12.4062 5.74896 9.17708 8.91354C5.94791 12.0781 4.33333 15.9403 4.33333 20.5C4.33333 25.0597 5.94791 28.9219 9.17708 32.0865C12.4062 35.251 16.3472 36.8333 21 36.8333Z" fill="#BDBDBD"/>
</svg>
