<svg width="123" height="42" viewBox="0 0 123 42" fill="none" xmlns="http://www.w3.org/2000/svg">
<path d="M100.832 41.647C91.4689 42.2067 79.9715 34.0152 79.9981 20.8394C79.9981 10.1722 88.3234 -0.213204 101.199 0.00332789C113.551 0.207604 122.082 9.40001 122.056 20.9334C122.09 23.7067 121.561 26.4582 120.5 29.0207C119.439 31.5832 117.868 33.9035 115.884 35.8405C113.899 37.7776 111.541 39.2911 108.954 40.2892C106.366 41.2874 103.603 41.7493 100.832 41.647ZM118.038 20.8108C118.014 16.28 116.192 11.9442 112.971 8.75726C109.751 5.57033 105.397 3.79332 100.866 3.81716C96.3362 3.84099 92.0009 5.66373 88.8143 8.88437C85.6278 12.105 83.851 16.4598 83.8748 20.9906C83.9075 30.8142 91.7324 37.8658 100.944 37.923C111.465 37.9802 118.442 29.0023 118.038 20.8068V20.8108Z" fill="#020202"/>
<path d="M74.6703 41.2016C75.0159 41.5779 75.4968 41.8015 76.0072 41.8231C76.5176 41.8447 77.0157 41.6627 77.3919 41.3171C77.7681 40.9714 77.9917 40.4905 78.0133 39.98C78.0349 39.4695 77.8529 38.9713 77.5073 38.5951L63.5304 23.3949C63.1783 23.0467 62.7056 22.8475 62.2105 22.8387C61.7153 22.8298 61.2359 23.0121 60.8715 23.3475C60.5072 23.6829 60.2861 24.1458 60.254 24.64C60.222 25.1342 60.3815 25.6218 60.6995 26.0015L74.6703 41.2016Z" fill="#020202"/>
<path d="M79.4821 1.86224V12.1496C79.4805 12.5438 79.3226 12.9213 79.0431 13.1993C78.7636 13.4773 78.3853 13.6331 77.9911 13.6326C77.5955 13.6299 77.2169 13.4719 76.9368 13.1925C76.6567 12.9132 76.4977 12.5349 76.4939 12.1393V5.67402L57.0716 25.0455C56.7144 25.3741 56.2442 25.5522 55.7589 25.5428C55.2736 25.5334 54.8107 25.3372 54.4664 24.995C54.1222 24.6528 53.9231 24.191 53.9108 23.7058C53.8984 23.2205 54.0736 22.7492 54.4 22.3899L62.4026 14.4109L62.4475 14.3537L73.8386 2.98575H67.3291C66.9357 2.98576 66.5583 2.82957 66.2799 2.55151C66.0015 2.27344 65.8448 1.89623 65.8442 1.50271V1.50271C65.844 1.306 65.8825 1.11118 65.9576 0.929388C66.0328 0.747601 66.1431 0.582429 66.2821 0.443334C66.4212 0.30424 66.5864 0.193956 66.7681 0.118803C66.9499 0.04365 67.1447 0.00510358 67.3414 0.00537249H77.795C78.2237 0.0493419 78.6243 0.239362 78.9296 0.543583C79.2349 0.847804 79.4264 1.24774 79.4719 1.67635C79.4794 1.73802 79.4828 1.80012 79.4821 1.86224V1.86224Z" fill="url(#paint0_linear_1204_1804)"/>
<path d="M50.0067 41.6735H51.5141C51.663 41.6738 51.8104 41.6447 51.9481 41.588C52.0857 41.5313 52.2108 41.448 52.3163 41.3429C52.4217 41.2378 52.5055 41.113 52.5627 40.9755C52.6199 40.8381 52.6495 40.6907 52.6498 40.5418V1.14115C52.6495 0.992264 52.6199 0.844892 52.5627 0.707444C52.5055 0.569996 52.4217 0.445165 52.3163 0.340078C52.2108 0.234991 52.0857 0.151706 51.9481 0.0949787C51.8104 0.0382514 51.663 0.00919379 51.5141 0.00946229H50.0067C49.8579 0.00919379 49.7104 0.0382514 49.5728 0.0949787C49.4351 0.151706 49.31 0.234991 49.2046 0.340078C49.0991 0.445165 49.0154 0.569996 48.9582 0.707444C48.9009 0.844892 48.8714 0.992264 48.8711 1.14115V40.5418C48.8714 40.6907 48.9009 40.8381 48.9582 40.9755C49.0154 41.113 49.0991 41.2378 49.2046 41.3429C49.31 41.448 49.4351 41.5313 49.5728 41.588C49.7104 41.6447 49.8579 41.6738 50.0067 41.6735V41.6735Z" fill="#020202"/>
<path d="M41.1722 12.1946C37.8756 4.55261 29.1908 -0.574713 18.5371 0.0626268C11.5557 0.744907 4.51721 4.91213 1.26961 14.1066C-1.40404 21.6893 0.215672 28.7 5.4629 34.5709C15.1914 45.4608 32.3057 43.0647 39.2441 32.5772C43.5518 26.0587 44.2197 19.2666 41.1722 12.1946ZM37.9696 31.5803C31.3682 41.5469 16.0145 43.2077 7.18066 34.0888C3.65119 30.4405 1.60867 25.977 1.69854 21.0928C1.72101 11.1711 9.03118 2.84486 18.5452 1.7336C27.228 0.712223 34.3298 3.64971 38.8193 11.2692C42.8063 18.0328 42.3671 24.9475 37.9675 31.5803H37.9696Z" fill="#020202"/>
<path d="M37.5322 12.3579C33.8332 5.80883 27.8282 2.83253 20.4097 3.2942C13.2303 3.73952 7.77677 7.19178 4.84167 13.9696C1.46743 21.7587 4.02467 29.0391 9.71308 34.1255C13.026 37.0814 17.0927 38.3091 22.0867 38.3724C27.1378 38.2172 31.8907 36.297 35.5959 31.8764C40.2283 26.3385 41.2965 19.0234 37.5322 12.3579ZM19.0127 16.4577C20.1687 17.2932 21.1696 18.3473 22.2174 19.3176C23.2284 20.2634 23.2386 21.2664 22.2174 22.2142C21.1961 23.162 20.2198 24.1957 19.0944 25.0169C17.9689 25.8381 17.7463 26.8553 18.0261 28.1729H25.1545C25.1851 27.7092 25.179 27.2578 25.2505 26.8165C25.3162 26.3976 25.5284 26.0156 25.8493 25.7384C26.1702 25.4613 26.579 25.3069 27.003 25.3029C27.429 25.3067 27.8384 25.4687 28.1517 25.7575C28.465 26.0463 28.6598 26.4412 28.6983 26.8656C28.7739 27.9851 28.7739 29.1084 28.6983 30.2279C28.6268 31.2064 27.9487 31.7498 27.003 31.758C23.3646 31.7906 19.7262 31.7906 16.0878 31.758C15.0665 31.7478 14.417 31.0369 14.3925 29.991C14.3598 28.4467 14.3169 26.9003 14.4211 25.3662C14.4558 24.8432 14.8296 24.2529 15.2136 23.8607C16.2348 22.8189 17.3643 21.869 18.5613 20.7781C17.4032 19.722 16.2532 18.7926 15.2606 17.714C14.7911 17.1817 14.4973 16.5176 14.419 15.8122C14.2924 14.4231 14.37 13.0116 14.3864 11.6103C14.4027 10.2498 15.0257 9.55729 16.3513 9.54503C19.8494 9.51779 23.3476 9.51779 26.8457 9.54503C28.059 9.55729 28.7024 10.2498 28.7412 11.4673C28.7677 12.3783 28.7616 13.2894 28.7412 14.2025C28.7146 15.4486 27.9977 16.2453 26.9581 16.2289C25.9531 16.2126 25.2791 15.4486 25.2158 14.2556C25.2015 13.9799 25.1852 13.702 25.1668 13.3711H18.018C17.826 14.6192 17.8689 15.6304 19.0127 16.4577Z" fill="#020202"/>
<defs>
<linearGradient id="paint0_linear_1204_1804" x1="53.8526" y1="12.7951" x2="79.4821" y2="12.7951" gradientUnits="userSpaceOnUse">
<stop stop-color="#0085FE"/>
<stop offset="1" stop-color="#29E5FF"/>
</linearGradient>
</defs>
</svg>
